<?xml version="1.0" encoding="utf-8"?>
<!-- Generator: Adobe Illustrator 16.0.0, SVG Export Plug-In . SVG Version: 6.00 Build 0)  -->
<!DOCTYPE svg PUBLIC "-//W3C//DTD SVG 1.1//EN" "http://www.w3.org/Graphics/SVG/1.1/DTD/svg11.dtd">
<svg version="1.1" id="Layer_1" xmlns="http://www.w3.org/2000/svg" xmlns:xlink="http://www.w3.org/1999/xlink" x="0px" y="0px"
	 width="49.5px" height="428.5px" viewBox="0 0 49.5 428.5" enable-background="new 0 0 49.5 428.5" xml:space="preserve">
<g>
	<g>
		<g>
			<rect x="25" y="348.61" fill="#3A3B3B" width="10" height="1.984"/>
		</g>
		<g>
			<rect x="25" y="329.891" fill="#3A3B3B" width="20" height="1.984"/>
		</g>
		<g>
			<rect x="25" y="367.329" fill="#3A3B3B" width="10" height="1.984"/>
		</g>
		<g>
			<rect x="25" y="386.046" fill="#3A3B3B" width="10" height="1.984"/>
		</g>
		<g>
			<rect x="25" y="404.765" fill="#3A3B3B" width="10" height="1.984"/>
		</g>
		<g>
			<line fill="none" x1="25" y1="424.476" x2="35" y2="424.476"/>
		</g>
		<g>
			<rect x="25" y="255.017" fill="#3A3B3B" width="10" height="1.984"/>
		</g>
		<g>
			<rect x="5" y="236.298" fill="#3A3B3B" width="20" height="1.984"/>
		</g>
		<g>
			<rect x="25" y="273.736" fill="#3A3B3B" width="10" height="1.984"/>
		</g>
		<g>
			<rect x="25" y="292.455" fill="#3A3B3B" width="10" height="1.984"/>
		</g>
		<g>
			<rect x="25" y="311.172" fill="#3A3B3B" width="10" height="1.984"/>
		</g>
		<g>
			<rect x="25" y="161.424" fill="#3A3B3B" width="10" height="1.984"/>
		</g>
		<g>
			<rect x="25" y="142.706" fill="#3A3B3B" width="20" height="1.984"/>
		</g>
		<g>
			<rect x="25" y="180.143" fill="#3A3B3B" width="10" height="1.984"/>
		</g>
		<g>
			<rect x="25" y="198.862" fill="#3A3B3B" width="10" height="1.984"/>
		</g>
		<g>
			<rect x="25" y="217.58" fill="#3A3B3B" width="10" height="1.984"/>
		</g>
		<g>
			<rect x="25" y="67.832" fill="#3A3B3B" width="10" height="1.984"/>
		</g>
		<g>
			<rect x="5" y="49.113" fill="#3A3B3B" width="20" height="1.984"/>
		</g>
		<g>
			<rect x="25" y="86.55" fill="#3A3B3B" width="10" height="1.984"/>
		</g>
		<g>
			<rect x="25" y="105.269" fill="#3A3B3B" width="10" height="1.984"/>
		</g>
		<g>
			<rect x="25" y="123.987" fill="#3A3B3B" width="10" height="1.984"/>
		</g>
	</g>
	<rect x="24" y="4.476" fill="#3A3B3B" width="2" height="420"/>
	<circle fill="#3A3B3B" cx="25" cy="423.476" r="2"/>
	<circle fill="#3A3B3B" cx="25" cy="330.883" r="2"/>
	<circle fill="#3A3B3B" cx="45" cy="330.883" r="3"/>
	<circle fill="#3A3B3B" cx="25" cy="237.291" r="2"/>
	<circle fill="#3A3B3B" cx="25" cy="143.698" r="2"/>
	<circle fill="#3A3B3B" cx="25" cy="50.105" r="2"/>
	<circle fill="#3A3B3B" cx="25" cy="4.476" r="2"/>
	<path fill="#3A3B3B" d="M28,325.695v2.57c0.614,0.704,1,1.612,1,2.618c0,2.206-1.794,4-4,4s-4-1.794-4-4
		c0-1.006,0.385-1.914,1-2.618v-2.57c-1.791,1.04-3,2.974-3,5.188c0,3.309,2.691,6,6,6s6-2.691,6-6
		C31,328.668,29.79,326.735,28,325.695z"/>
	<g>
		<circle fill="#3A3B3B" cx="25" cy="143.292" r="2"/>
		<circle fill="#3A3B3B" cx="45" cy="143.292" r="3"/>
		<path fill="#3A3B3B" d="M28,138.104v2.57c0.614,0.704,1,1.612,1,2.618c0,2.206-1.794,4-4,4s-4-1.794-4-4
			c0-1.006,0.385-1.914,1-2.618v-2.57c-1.791,1.04-3,2.974-3,5.188c0,3.309,2.691,6,6,6s6-2.691,6-6
			C31,141.078,29.79,139.144,28,138.104z"/>
	</g>
	<g>
		<circle fill="#3A3B3B" cx="25" cy="236.885" r="2"/>
		<circle fill="#3A3B3B" cx="5" cy="236.885" r="3"/>
		<path fill="#3A3B3B" d="M22,231.696v2.57c-0.614,0.705-1,1.613-1,2.619c0,2.205,1.795,4,4,4s4-1.795,4-4
			c0-1.006-0.385-1.914-1-2.619v-2.57c1.791,1.041,3,2.975,3,5.189c0,3.309-2.691,6-6,6s-6-2.691-6-6
			C19,234.67,20.21,232.737,22,231.696z"/>
	</g>
	<g>
		<circle fill="#3A3B3B" cx="25" cy="49.7" r="2"/>
		<circle fill="#3A3B3B" cx="5" cy="49.7" r="3"/>
		<path fill="#3A3B3B" d="M22,44.511v2.57c-0.614,0.705-1,1.613-1,2.619c0,2.205,1.795,4,4,4s4-1.795,4-4
			c0-1.006-0.385-1.914-1-2.619v-2.57c1.791,1.041,3,2.975,3,5.189c0,3.309-2.691,6-6,6s-6-2.691-6-6
			C19,47.485,20.21,45.552,22,44.511z"/>
	</g>
</g>
</svg>
